<svg width="600" height="500" viewBox="0 0 600 500" xmlns="http://www.w3.org/2000/svg" xmlns:xlink="http://www.w3.org/1999/xlink" data-cache="1690127865253">
<style>
path.line-0 {
  stroke-dasharray: 292 297;
  stroke-dashoffset: 292;
  animation: draw-0 5.22s ease forwards infinite;
}
@keyframes draw-0 {
  0% { stroke-dashoffset: 292; }
  13.99% { stroke-dashoffset: 0; }
  100% { stroke-dashoffset: 0; }
}
path.line-1 {
  stroke-dasharray: 35 40;
  stroke-dashoffset: 35;
  animation: draw-1 5.22s ease forwards infinite;
}
@keyframes draw-1 {
  0% { stroke-dashoffset: 35; }
  13.99% { stroke-dashoffset: 35; }
  15.67% { stroke-dashoffset: 0; }
  100% { stroke-dashoffset: 0; }
}
path.line-2 {
  stroke-dasharray: 88 93;
  stroke-dashoffset: 88;
  animation: draw-2 5.22s ease forwards infinite;
}
@keyframes draw-2 {
  0% { stroke-dashoffset: 88; }
  15.67% { stroke-dashoffset: 88; }
  19.89% { stroke-dashoffset: 0; }
  100% { stroke-dashoffset: 0; }
}
path.line-3 {
  stroke-dasharray: 146 151;
  stroke-dashoffset: 146;
  animation: draw-3 5.22s ease forwards infinite;
}
@keyframes draw-3 {
  0% { stroke-dashoffset: 146; }
  19.89% { stroke-dashoffset: 146; }
  26.89% { stroke-dashoffset: 0; }
  100% { stroke-dashoffset: 0; }
}
path.line-4 {
  stroke-dasharray: 81 86;
  stroke-dashoffset: 81;
  animation: draw-4 5.22s ease forwards infinite;
}
@keyframes draw-4 {
  0% { stroke-dashoffset: 81; }
  26.89% { stroke-dashoffset: 81; }
  30.77% { stroke-dashoffset: 0; }
  100% { stroke-dashoffset: 0; }
}
path.line-5 {
  stroke-dasharray: 148 153;
  stroke-dashoffset: 148;
  animation: draw-5 5.22s ease forwards infinite;
}
@keyframes draw-5 {
  0% { stroke-dashoffset: 148; }
  30.77% { stroke-dashoffset: 148; }
  37.86% { stroke-dashoffset: 0; }
  100% { stroke-dashoffset: 0; }
}
path.line-6 {
  stroke-dasharray: 181 186;
  stroke-dashoffset: 181;
  animation: draw-6 5.22s ease forwards infinite;
}
@keyframes draw-6 {
  0% { stroke-dashoffset: 181; }
  37.86% { stroke-dashoffset: 181; }
  46.53% { stroke-dashoffset: 0; }
  100% { stroke-dashoffset: 0; }
}
path.line-7 {
  stroke-dasharray: 262 267;
  stroke-dashoffset: 262;
  animation: draw-7 5.22s ease forwards infinite;
}
@keyframes draw-7 {
  0% { stroke-dashoffset: 262; }
  46.53% { stroke-dashoffset: 262; }
  59.09% { stroke-dashoffset: 0; }
  100% { stroke-dashoffset: 0; }
}
path.line-8 {
  stroke-dasharray: 260 265;
  stroke-dashoffset: 260;
  animation: draw-8 5.22s ease forwards infinite;
}
@keyframes draw-8 {
  0% { stroke-dashoffset: 260; }
  59.09% { stroke-dashoffset: 260; }
  71.55% { stroke-dashoffset: 0; }
  100% { stroke-dashoffset: 0; }
}
path.line-9 {
  stroke-dasharray: 179 184;
  stroke-dashoffset: 179;
  animation: draw-9 5.22s ease forwards infinite;
}
@keyframes draw-9 {
  0% { stroke-dashoffset: 179; }
  71.55% { stroke-dashoffset: 179; }
  80.13% { stroke-dashoffset: 0; }
  100% { stroke-dashoffset: 0; }
}
path.line-10 {
  stroke-dasharray: 181 186;
  stroke-dashoffset: 181;
  animation: draw-10 5.22s ease forwards infinite;
}
@keyframes draw-10 {
  0% { stroke-dashoffset: 181; }
  80.13% { stroke-dashoffset: 181; }
  88.8% { stroke-dashoffset: 0; }
  100% { stroke-dashoffset: 0; }
}
path.line-11 {
  stroke-dasharray: 128 133;
  stroke-dashoffset: 128;
  animation: draw-11 5.22s ease forwards infinite;
}
@keyframes draw-11 {
  0% { stroke-dashoffset: 128; }
  88.8% { stroke-dashoffset: 128; }
  94.93% { stroke-dashoffset: 0; }
  100% { stroke-dashoffset: 0; }
}
path.line-12 {
  stroke-dasharray: 107 112;
  stroke-dashoffset: 107;
  animation: draw-12 5.22s ease forwards infinite;
}
@keyframes draw-12 {
  0% { stroke-dashoffset: 107; }
  94.93% { stroke-dashoffset: 107; }
  100.06% { stroke-dashoffset: 0; }
  100% { stroke-dashoffset: 0; }
}
</style><rect x="0" y="0" width="600" height="500" fill="#fff">

</rect><g mask="url(#brush)">
<path d="M196,106L196,102L195,98L193,92L187,86L177,82L164,85L151,92L140,104L133,113L133,119L140,122L151,126L164,131L175,137L180,145L179,154L171,164L158,178L139,191L118,202L100,207L87,207L79,199L79,191L80,189" stroke-width="12" stroke-linecap="round" stroke-linejoin="round" stroke="#000" fill="none" class="line-0">

</path><path d="M192,155L192,154L191,153L193,152L198,152L206,151L214,151L221,150L223,149" stroke-width="12" stroke-linecap="round" stroke-linejoin="round" stroke="#000" fill="none" class="line-1">

</path><path d="M218,134L216,134L215,138L211,147L208,162L207,176L208,185L211,191L215,195L220,195L226,191L231,184" stroke-width="12" stroke-linecap="round" stroke-linejoin="round" stroke="#000" fill="none" class="line-2">

</path><path d="M241,169L241,170L241,171L245,171L252,170L260,167L267,162L271,158L272,154L271,151L268,147L264,146L260,147L255,151L249,158L245,168L245,180L248,188L254,192L263,193L271,189L279,184L284,178" stroke-width="12" stroke-linecap="round" stroke-linejoin="round" stroke="#000" fill="none" class="line-3">

</path><path d="M294,162L291,163L291,166L291,170L293,176L295,184L299,188L303,190L307,188L311,183L316,175L321,165L328,158L332,155" stroke-width="12" stroke-linecap="round" stroke-linejoin="round" stroke="#000" fill="none" class="line-4">

</path><path d="M333,170L332,171L332,173L335,174L340,173L350,169L362,162L369,156L372,152L372,150L367,147L361,146L355,147L350,151L344,159L343,169L344,178L349,183L355,184L363,182L372,174L377,167" stroke-width="12" stroke-linecap="round" stroke-linejoin="round" stroke="#000" fill="none" class="line-5">

</path><path d="M392,149L392,150L390,154L387,161L383,171L383,181L383,185L386,184L391,177L397,170L403,161L410,153L415,147L417,146L417,149L415,155L414,161L414,170L415,179L418,183L423,182L430,176L437,171L444,163L453,154L457,150" stroke-width="12" stroke-linecap="round" stroke-linejoin="round" stroke="#000" fill="none" class="line-6">

</path><path d="M177,249L177,246L178,244L181,244L182,244L183,250L184,262L183,280L180,297L173,311L165,321L155,327L144,329L136,325L132,322L131,316L135,313L140,310L148,308L158,308L167,314L178,321L190,326L204,328L219,327L234,324L246,321L251,320" stroke-width="12" stroke-linecap="round" stroke-linejoin="round" stroke="#000" fill="none" class="line-7">

</path><path d="M245,287L243,290L241,294L241,302L241,311L245,315L249,316L256,314L261,308L267,300L270,291L271,285L271,284L269,285L267,289L266,295L265,305L264,321L263,339L260,354L255,366L248,375L238,382L227,383L218,382L208,375L203,362L203,351L208,341L212,336" stroke-width="12" stroke-linecap="round" stroke-linejoin="round" stroke="#000" fill="none" class="line-8">

</path><path d="M286,285L287,284L288,288L286,298L283,312L282,322L282,326L283,326L286,322L291,314L297,305L305,294L314,287L317,286L319,288L320,294L320,305L320,316L320,323L324,325L328,324L339,318L350,309L355,304" stroke-width="12" stroke-linecap="round" stroke-linejoin="round" stroke="#000" fill="none" class="line-9">

</path><path d="M361,289L360,287L359,287L359,288L358,294L357,305L355,316L355,323L355,324L358,322L364,315L370,306L379,295L385,287L389,286L389,287L389,294L387,305L386,317L386,327L390,331L398,330L407,325L419,316L426,311" stroke-width="12" stroke-linecap="round" stroke-linejoin="round" stroke="#000" fill="none" class="line-10">

</path><path d="M442,306L444,306L447,306L451,305L456,304L460,301L467,297L473,294L478,290L482,287L487,282L491,276L495,271L498,266L501,262L502,257L502,252L502,247L502,244L501,241L500,239L497,237L493,236L488,236L483,236L480,237L477,238L476,240L476,241" stroke-width="12" stroke-linecap="round" stroke-linejoin="round" stroke="#000" fill="none" class="line-11">

</path><path d="M472,247L472,245L471,244L471,243L470,241L468,239L467,237L464,235L462,234L459,232L456,231L453,230L451,230L448,230L444,232L441,234L439,237L437,240L436,244L434,249L434,254L434,258L434,262L436,266L438,270L441,274L445,276L451,276L456,276L463,276" stroke-width="12" stroke-linecap="round" stroke-linejoin="round" stroke="#000" fill="none" class="line-12">

</path>
</g><mask id="brush">
<rect x="0" y="0" width="100%" height="100%" fill="black">

</rect><path d="M195.9902219758592,106.00209529088731L190.34365910802492,97.76312327711433L179.31616051271976,88.70806913853673L159.15068207288311,93.37892313277341L148.6765548697532,102.03177209395419L140.44648592402137,110.67343757317022L148.4729569794578,119.80864696984608L159.50250077830336,124.61544632789318L170.88389704179772,130.4838578614898L179.24034478878772,138.60993335425997L182.09933647973426,149.21361469865374L177.23820268266414,160.82538280569594L166.50737773138215,173.9224466049684L149.94154044268694,187.1991548317498L130.24042726328653,199.03955485618152L111.21505773948114,206.5627607936656L95.26660874287157,209.17369173512958L83.16639732321669,203.6371469955572L80.31738069455967,190.95121311987387L80.32724272700302,190.94955772986356L80.33710475944638,190.94790233985324L82.09427608402409,193.99643253824476L94.66369342628755,202.1013167960757L108.49599583055935,199.61803843504404L126.31926734228156,192.52371409277012L145.0532790854855,181.11438591129644L160.2582450180366,168.80507346116144L173.93599633146343,149.84925211632756L167.2007643061613,137.58049924166215L156.30714440952735,132.3525797930594L144.54754571159154,127.75240359242824L131.10010713515243,115.76794276534986L134.7165153313968,105.53774326081347L143.61613165942373,95.87979414416255L156.1224500050995,85.67291686182269L169.88753851963614,80.53396123477903L183.36522314203023,80.72248891696327L197.74734089197509,95.99487672288568L196.0097780241408,105.99790470911269Z" fill="white">

</path><path d="M191.99725278872103,154.9903847605236L199.97019813771817,148.32835753060397L216.77131913167432,148.78952723739053L220.90526528238502,149.51925987016193L220.90771629057912,149.52895484612026L220.91016729877322,149.53864982207858L217.2213138128257,152.24608163560947L202.27180186228185,156.45964246939604L192.00274721127897,155.0096152394764Z" fill="white">

</path><path d="M218.00880471099921,134.00474099823035L216.61748247649368,144.15852901456793L214.15762138040242,156.37521218979677L212.1513505070182,169.31996838748407L214.12211135482852,185.80133558382L228.23561473811776,186.79934070166945L228.2427479281285,186.8063490966548L228.24988111813923,186.81335749164015L224.15385459680732,194.64619560254224L209.97887605835732,194.77105686179823L203.84077543733173,179.367014254436L203.8669285207318,168.1779852752659L205.6337101195976,154.01202931020325L210.26151752350634,140.7804709854321L217.99119528900079,133.99525900176965Z" fill="white">

</path><path d="M241.00090535746043,168.99004106793532L248.44131341138214,166.03939987632225L260.6236363734803,159.39671511947742L252.35426606961377,166.01878032083673L252.1497994119669,182.13802206922063L265.80358685121416,185.286014386145L280.7732377980965,180.80007933672698L280.7798095107575,180.80761674959223L280.7863812234185,180.81515416245747L276.1317960463213,188.82017783173063L257.736299934918,196.4513739866167L242.34680917153054,184.27715225232814L240.72461465940103,173.56798478965504L242.48391999525913,160.973797598047L247.77521650316646,150.9893588207729L261.65233506814116,141.19991698362747L273.79375290650336,146.0919810474174L275.4765483079467,158.7023004205454L265.6229532257697,168.7323461622726L247.89168658861783,173.26360012367775L240.99909464253957,169.00995893206468Z" fill="white">

</path><path d="M294.0099745869983,162.00071247049988L297.8531334236904,171.42513472412904L301.7987807192213,182.5526969466231L309.12742523629834,175.21491168311587L322.6078128830179,160.38262047243273L329.4322968313321,157.4559153126903L329.4392291508856,157.46312245814525L329.44616147043905,157.4703296036002L322.5049324778863,171.98191730611782L317.91230056607174,181.59864240329517L305.82993172336626,193.20197626258016L293.01206249902873,187.5309359978769L288.8438665763096,170.81686527587098L293.9900254130017,161.99928752950012Z" fill="white">

</path><path d="M332.99941277978047,169.99001725626826L343.732050921159,164.85825963517115L354.06907160001117,160.4890284847116L366.2191230158701,151.1040681920085L355.29463405822366,154.31301800071404L349.38130632519574,165.84128798327157L351.5976703681305,176.92321293605198L365.7413322171332,174.04078401369293L373.70513812538616,170.423984384329L373.71235833031443,170.43090310103037L373.7195785352427,170.43782181773173L369.39128373876025,179.6487603250754L350.13623651776106,187.16386102973416L339.10050197296283,173.38440887054406L339.44967735525233,162.9039323547646L343.0685389528531,152.3153544448715L350.2759229339114,144.8748178610028L365.1663174508172,142.04746041653883L374.78536813832443,150.02899939898685L366.7636574788644,162.64729409630928L357.43755189998876,168.63287601528842L344.41894907884097,173.83874036482885L333.00058722021953,170.00998274373174Z" fill="white">

</path><path d="M392.0092307692308,149.00384615384615L391.87830849405634,158.1245850018528L388.33518080064727,176.4132544890093L395.87879727681457,162.32301504282967L402.77170709027905,154.21222440120914L417.48630545285914,143.73180765482826L420.6344927717794,153.84642261165686L419.54241842567785,166.0908151515793L420.62844737863475,176.89597341899014L430.38551321352554,168.86042395548375L446.5632037682226,156.36994395160085L454.05933668287014,152.91963175109717L454.06639943298444,152.926711126834L454.07346218309874,152.93379050257082L450.6012119160496,160.42610268733173L443.8479079011737,170.19959595797948L429.5924041208356,182.6337877726376L413.0815111925597,183.12428959421095L408.81873644131235,165.6294165707733L412.20565174935473,149.71761220592998L410.208101428012,160.3262816817861L398.0570573680414,176.60329662312225L388.061018740511,186.72615442309706L379.05969829060274,175.1718738919907L385.6066915059437,155.51141499814722L391.9907692307692,148.99615384615385Z" fill="white">

</path><path d="M176.99292893218814,248.99292893218814L177.90531407889594,243.39031407889595L178.53660116120864,242.89573615283481L179.26790696488797,242.56661227532553L180.05672796226384,242.4220711415928L180.85721783990618,242.47051348912035L181.62285208851554,242.70912384639385L182.30913200958958,243.12403416823753L182.87617098187076,243.69112984725132L183.29101267364788,244.37745125592608L183.52954646630363,245.14310936174294L183.57790876460135,245.9436040796176L183.43328874949168,246.732410618936L183.10409174304777,247.4636835065711L182.6094506907514,248.09492112793484L187.33148165952153,272.15139129762395L185.08208189629713,288.8387748049634L179.48233566904455,304.41849789916637L171.98928582389723,316.764376786217L162.20915021683032,325.5619156166591L150.65582705532526,330.3570460695458L140.1408997636112,329.5772892300522L128.40556335998363,319.0203107130251L134.87695800900406,307.8964593652962L153.08293141632842,303.5275675819536L164.05944834533898,307.54487331675085L174.73702313469033,313.9368193688242L185.6798336642787,319.29875435654077L197.92796484232045,322.3629115303991L211.44616929259445,322.8438950106179L225.64955997758952,321.272209328304L238.62531524596682,320.173595133314L246.83864883932873,320.8199626467127L246.84060521798528,320.8297694087957L246.84256159664184,320.8395761708787L239.50441340818122,324.5883526933471L226.55052224378213,328.65303551146957L211.21690738279045,330.68048042632194L196.06364685175382,330.27231210500923L182.12393016376797,327.04622020704136L170.2666033446402,321.8364218466196L153.50404395325555,313.3754063476672L141.27269731672337,321.6887838820836L157.3884289168176,319.90701239526163L165.55039605170649,312.7562200916045L172.15233255363475,301.7725978765051L177.08626307552296,287.79851579954567L178.89045513192784,272.02734788317673L178.90245154485473,257.93258773415937L177.90507887206516,243.3905493092486L178.5363164934289,242.89590825695223L179.267589381064,242.56671125050832L180.0563959203824,242.42209123539865L180.85689063825706,242.47045353369637L181.62254874407392,242.70898732635212L182.30887015274868,243.12382901812924L182.87596583176247,243.69086799041042L183.29087615360615,244.37714791148446L183.52948651087965,245.14278216009382L183.5779288584072,245.94327203773616L183.43338772467447,246.73209303511203L183.10426384716519,247.46339883879136L182.60968592110405,248.09468592110406L177.00707106781186,249.00707106781186Z" fill="white">

</path><path d="M245.00966234939602,287.00257662650563L246.46085574978488,297.8476397660023L248.1906416082215,309.7776739877318L259.94083553159993,300.1437244919563L264.92592545480517,287.1159111565742L271.067107401705,301.3514417190364L269.52255835611743,314.2848849586473L268.1206587437232,330.5368743783351L265.4859063758613,346.3652422627739L261.074698635922,360.1562036702584L254.58890154006383,371.39171494659377L245.12613871378915,380.4667218429057L233.6703657944001,384.81009902306505L223.0632824288044,385.69402388563105L211.3246515689372,380.809323463436L203.2768526260078,369.4225799391873L200.64078282436265,357.31886037810125L204.42435524471122,345.91224898094254L210.14084170078596,339.6442555684832L210.14976055503033,339.6487781826572L210.1586794092747,339.6533007968313L208.95734091041268,347.0276545063299L209.85925358136106,365.2643689421422L222.99878893972826,377.69353279882273L240.07189482229302,374.7517297251286L247.80430803262527,367.41015468908574L253.27023557552445,357.71142799596703L256.9816236426366,345.0827682572417L258.9597717254244,329.9681773290269L259.5776725453103,313.5144025804115L261.1958506945798,291.0404086663923L272.9229941547888,281.39284998879737L272.513200293808,297.600223921111L267.9159411395579,306.93740371832655L253.74830509219376,319.26986480522135L239.35996726477848,313.9784022385182L238.32714425021513,295.69736023399764L244.99033765060398,286.99742337349437Z" fill="white">

</path><path d="M286.00993883734674,285.00110431526076L288.23803525704596,303.05633686635053L286.72245581989233,315.65822800554326L287.18956637935145,324.9874609142865L286.9896539164388,326.0442381943875L286.54263966477055,327.0224618249398L285.8745041136564,327.86527740257407L285.02407933271957,328.5237004463186L284.0407920501849,328.95946337793526L282.981790969113,329.14723963536414L281.90862528209266,329.0761156537008L280.883667429276,328.75022516210134L279.9664880092261,328.18850893124943L279.2103935329299,327.4236139348742L278.65932824687457,326.49999590610355L278.3453200913773,325.47133556816556L278.28661923518933,324.3974187082326L285.027882775077,314.4831239728391L297.7044484762323,296.7828883314249L306.6604212550829,288.28065656025757L319.89869488673565,284.9346565979951L324.517813695349,300.0970562089891L324.60758596724645,310.4784897112843L342.8577691253063,310.3477518616247L351.36970966395967,307.06410739898456L351.3761757361682,307.07173563011594L351.3826418083767,307.0793638612473L346.34553495600346,315.2805731318672L336.4877436565637,324.45804876688555L319.30028168943784,326.110275944915L315.1721375692596,310.6700145217477L312.43438646548435,294.2958570953777L304.74263250100523,301.8269069501685L298.0075148914653,311.8043692492659L287.18959583694686,324.98701576398093L286.98978905276164,326.0438130300443L286.5428726256913,327.02208135713056L285.87482135947556,327.86496374410575L285.024462425095,328.5234718270362L284.04121872376993,328.9593330852021L282.98223642561874,329.1472152418L281.909063631566,329.07619857706084L280.8840731948251,328.75041058287593L279.9668376077381,328.1887860727744L279.2106666457228,327.4239666896712L278.6595090006201,326.50040377204715L278.3453979806593,325.47177484006795L278.286589733079,324.3978638555902L278.7032576801077,314.8133504944567L279.85296474295404,302.1246631336495L285.99006116265326,284.99889568473924Z" fill="white">

</path><path d="M361.0097014250015,289.00242535625034L362.29688355827875,300.3995559296161L360.4187645766522,311.08769199150566L359.7904285651083,322.5299127142803L359.55244213089975,323.6294922408512L359.0582167707085,324.64016230148684L358.33647688569,325.5031827047768L357.4291700318723,326.1683946643331L356.38902892622883,326.5971360298114L355.2765066186906,326.7644883329059L354.15626295804316,326.6607250498976L353.0934065584779,326.2918769076703L352.14971068387564,325.67938137758057L351.38002298280753,324.8588367286151L350.8290777406234,323.8779330543249L350.52889592068493,322.79368052234736L350.49692410447096,321.6690959407843L358.16979402819646,314.08904589248283L371.3822709634573,297.4712106964824L378.06858616204636,288.94748755225277L385.2927462415409,283.5795346882258L386.2720791580483,283.02056522278076L387.35672696075244,282.71221644502407L388.48364986839806,282.6724096004066L389.58735106864464,282.9034582646079L390.6036833958766,283.39193387840874L391.47357756748306,284.10944621618415L392.14647529333854,285.01429342715045L392.58326772600026,286.0538857488921L392.75856846875934,287.16780202682463L392.66218903421014,288.29130139453736L392.29973099961705,289.3590860159914L391.6922604429807,290.3090961988183L390.87508358159454,291.08611730655605L391.1165436500792,311.6341729536584L391.68593270076076,324.77628999173174L411.61130068772525,316.9728501000155L421.5789238397715,314.0048229847807L421.58456047182,314.0130830319446L421.5901971038685,314.0213430791085L415.0490176584441,322.31887461702655L404.32077671568294,331.0027634696956L394.01763535761995,333.8940232562734L381.7201314208318,321.492381809178L381.988732601301,310.7654746636311L382.84243353693773,299.7584219445092L385.2923709403232,283.57981384262456L386.27164795498754,283.0207464466829L387.3562649173907,282.71228920568785L388.48318383871725,282.67236966897883L389.5869081383117,282.903307961905L390.6032893080233,283.39168194003094L391.47325522651397,284.1091072848018L392.1462434337259,285.01388720147133L392.5831398234356,286.0534358387719L392.7585519569458,287.1673345810606L392.6622848728151,288.29084358109924L392.29993361849625,289.3586644430178L391.69255806591536,290.30873536815017L390.87545891072574,291.0858381896888L384.8489855771895,294.2698664112566L378.29512283635887,302.9774376923536L370.8851581228031,312.8099916485629L359.7904715594793,322.5294480347551L359.5525950844131,323.6290513544715L359.0584707936989,324.6397708325897L358.33681721432924,325.502863405553L357.4295768862439,326.1681660924684L356.3894786599377,326.59701146991347L355.2769730931923,326.7644750244017L354.15671906181785,326.66082376627816L353.09382578275273,326.29208191153486L352.150068663316,325.6796807540949L351.3802989116316,324.85921307800214L350.8292555818349,323.8783645031406L350.5289653381443,322.7941419947662L350.49688106363226,321.66956061600774L351.9468534233478,309.3588360084943L354.49111644172126,298.44844407038386L360.9902985749985,288.99757464374966Z" fill="white">

</path><path d="M441.9985857864376,305.99010050506337L450.426855951291,300.0991616405618L461.0447094407475,294.1905403873989L472.06560141219563,287.5429787108357L480.6921262540412,280.2688494781994L488.4438394402139,270.28672335101317L494.66075185648316,261.05988074175116L495.97079714026086,249.4084002015461L485.4225094830139,240.76230567468068L476.3394996022936,240.35741060740884L476.3305943330296,240.35286130204037L476.3216890637656,240.3483119966719L485.717848542878,231.41972837584618L497.0662301311678,231.1222481317805L507.312457761459,241.56732360946464L507.4881669341248,255.34944125292554L503.98679736486446,267.6121678471891L497.1697677292508,277.2259459403356L488.14720500136673,288.4263479458808L478.13746403457856,296.4214099610926L465.9195415037525,303.49547754910105L451.815144048709,309.2948383594382L442.0014142135624,306.00989949493663Z" fill="white">

</path><path d="M471.99105572809,247.004472135955L465.3634037180301,243.80329814098496L455.1056049764408,237.20407531193376L444.9677756967851,240.03676134699563L440.77900322815316,252.24769482201145L443.06609667175127,265.22529369117046L453.5162326206184,272.5157808704279L459.62023206558814,275.9289050451636L459.62005133323083,275.938903411821L459.6198706008735,275.9489017784784L447.36281324910146,280.3931173632435L434.3359277673019,275.3970178696039L429.0635398569951,265.82388665532017L427.6063213902745,255.37566761380728L428.9009505234259,244.2360905341876L432.9472571038995,234.6404810639982L443.8011906317128,225.37296277991666L456.69167467651346,224.84843461501683L466.4375899199453,229.9988615996527L473.4245962819699,239.77270185901506L472.00894427191,246.995527864045Z" fill="white">

</path>
</mask>
</svg>